<?xml version="1.0" encoding="iso-8859-1"?>
<!-- Generator: Adobe Illustrator 19.0.0, SVG Export Plug-In . SVG Version: 6.00 Build 0)  -->
<svg version="1.1" id="Capa_1" xmlns="http://www.w3.org/2000/svg" xmlns:xlink="http://www.w3.org/1999/xlink" x="0px" y="0px"
	 viewBox="0 0 512 512" style="enable-background:new 0 0 512 512;" xml:space="preserve">
<g>
	<g>
		<path d="M162.87,371.741c-1.039-5.425-6.274-8.987-11.704-7.941l-0.827,0.158c-5.425,1.038-8.98,6.278-7.941,11.704
			c0.916,4.79,5.108,8.122,9.811,8.122c0.623,0,1.257-0.059,1.892-0.181l0.827-0.158
			C160.354,382.406,163.909,377.166,162.87,371.741z"/>
	</g>
</g>
<g>
	<g>
		<path d="M469.253,113.243l-25.915-28.845l-16.365-61.95c-2.461-9.314-12.041-14.894-21.355-12.435l-51.115,13.485
			c-4.772,1.259-8.806,4.496-11.07,8.879c-2.265,4.385-2.567,9.548-0.831,14.168l21.672,57.658l-12.877,62.152
			c-9.159,44.212-30.023,85.268-60.336,118.73c-27.41,30.259-62.156,53.691-100.481,67.76c-5.186,1.903-7.846,7.65-5.942,12.836
			c1.904,5.186,7.651,7.844,12.836,5.942c41.351-15.181,78.838-40.461,108.411-73.108c32.706-36.104,55.216-80.4,65.098-128.101
			l12.172-58.751l47.656-11.277l23.562,26.226c38.266,42.592,48.337,104.084,25.656,156.658l-2.183,5.061
			c-23.032,53.388-60.71,99.123-108.96,132.264c-67.669,46.481-149.955,67.974-231.716,60.527l-11.304-1.029
			c-14.512-1.322-28.919-3.929-43.017-7.707c3.611-9.436,5.496-19.499,5.496-29.649v-3.063c0-5.523-4.479-10.001-10.001-10.001
			c-5.523,0-10.001,4.479-10.001,10.001v3.063c0,8.14-1.591,16.208-4.645,23.716c-14.516-5.122-28.581-11.516-41.932-19.135
			l7.522-25.965l32.261-6.105c1.703-0.322,3.294-1.081,4.615-2.204c12.682-10.773,28.026-18.101,44.374-21.194
			c5.428-1.026,8.994-6.259,7.968-11.687c-1.027-5.427-6.258-8.995-11.688-7.967c-18.864,3.569-36.621,11.807-51.526,23.878
			l-35.761,6.768c-3.703,0.7-6.698,3.424-7.747,7.044L0.396,449.198c-1.254,4.33,0.543,8.964,4.391,11.316
			c18.841,11.519,39.118,20.745,60.19,27.477c0.526,0.22,1.063,0.384,1.605,0.509c18.694,5.849,37.998,9.737,57.472,11.512
			l11.304,1.029c11.221,1.021,22.437,1.528,33.642,1.528c75.064-0.003,148.995-22.751,211.216-65.487
			c51.361-35.278,91.472-83.976,115.999-140.83l2.183-5.061C524.159,231.474,512.721,161.625,469.253,113.243z M380.918,91.636
			l-18.61-49.51l45.969-12.128l13.716,51.918L380.918,91.636z"/>
	</g>
</g>
<g>
	<g>
		<path d="M446.704,264.001c-5.079-2.175-10.957,0.173-13.135,5.249l-0.441,1.019c-2.206,5.064,0.111,10.958,5.175,13.164
			c1.3,0.567,2.655,0.835,3.99,0.835c3.858,0,7.534-2.246,9.174-6.01l0.486-1.122C454.13,272.059,451.78,266.18,446.704,264.001z"/>
	</g>
</g>
<g>
	<g>
		<path d="M423.853,309.6c-4.569-3.105-10.789-1.919-13.894,2.649c-18.312,26.941-41.314,50.023-68.368,68.605
			c-4.553,3.127-5.709,9.354-2.581,13.907c1.939,2.823,5.069,4.341,8.253,4.341c1.951,0,3.924-0.57,5.654-1.758
			c29.112-19.997,53.87-44.843,73.586-73.849C429.607,318.926,428.422,312.705,423.853,309.6z"/>
	</g>
</g>
<g>
</g>
<g>
</g>
<g>
</g>
<g>
</g>
<g>
</g>
<g>
</g>
<g>
</g>
<g>
</g>
<g>
</g>
<g>
</g>
<g>
</g>
<g>
</g>
<g>
</g>
<g>
</g>
<g>
</g>
</svg>
