<svg id="Layer_1" enable-background="new 0 0 512.006 512.006" height="512" viewBox="0 0 512.006 512.006" width="512" xmlns="http://www.w3.org/2000/svg"><g><path d="m457.178 190.538c-16-28.676-37.282-49.797-62.98-62.871 32.239-19.685 53.805-55.201 53.805-95.661 0-8.836-7.163-16-16-16h-80c-43.933 0-82.031 25.43-100.368 62.34-9.749-18.88-21.655-33.167-32.615-43.573-26.374-25.045-53.076-33.669-54.199-34.024-8.432-2.663-17.45 2.002-20.11 10.428-2.661 8.426 1.979 17.403 10.404 20.064.216.07 21.812 7.268 42.891 27.714 16.841 16.336 28.655 36.205 35.375 59.37-12.62-3.725-28.344-6.32-46.662-6.32-38.123 0-78.386 18.233-107.703 48.774-25.097 26.145-55.014 74.313-55.014 155.314 0 127.829 99.233 195.911 170.868 195.911 23.541 0 41.358-3.506 57.788-11.561 17.492 7.676 36.398 11.561 56.325 11.561 74.178 0 117.418-41.085 140.629-75.551 28.336-42.074 38.39-91.133 38.39-120.36.001-16.492-2.222-74.293-30.824-125.555zm-105.175-142.532h62.393c-7.434 36.47-39.76 64-78.393 64h-62.393c7.434-36.47 39.76-64 78.393-64zm71.068 370.574c-27.449 40.759-65.834 61.426-114.087 61.426-81.608 0-125.737-84.404-130.749-164.905-2.523-40.537 5.544-75.841 23.977-104.931 4.729-7.464 2.513-17.35-4.952-22.079-7.462-4.729-17.348-2.512-22.079 4.951-22.116 34.904-31.834 76.64-28.883 124.047 3.667 58.904 26.032 122.651 71.313 161.243-6.704 1.147-14.146 1.674-22.739 1.674-30.105 0-64.822-15.93-90.604-41.573-22.019-21.9-48.265-60.901-48.265-122.338 0-55.693 15.94-101.737 46.099-133.154 23.403-24.379 55.036-38.935 84.618-38.935 25.68 0 44.805 6.368 52.895 11.26.257 4.168.388 8.414.388 12.74 0 8.836 7.163 16 16 16s16-7.164 16-16c0-5.061-.175-9.958-.476-14.73 13.261-4.947 31.265-9.27 53.759-9.27 45.975 0 80.947 20.901 103.947 62.124 24.839 44.518 26.77 95.424 26.77 109.965 0 24.719-8.625 66.392-32.932 102.485z"/></g></svg>